<mxfile host="Electron" agent="Mozilla/5.0 (Windows NT 10.0; Win64; x64) AppleWebKit/537.36 (KHTML, like Gecko) draw.io/26.0.4 Chrome/128.0.6613.186 Electron/32.2.5 Safari/537.36" version="26.0.4">
  <diagram name="Page-1" id="xtj2Qt-a1xN68GkzKa6U">
    <mxGraphModel dx="1034" dy="556" grid="1" gridSize="10" guides="1" tooltips="1" connect="1" arrows="1" fold="1" page="1" pageScale="1" pageWidth="1169" pageHeight="827" math="0" shadow="0">
      <root>
        <mxCell id="0" />
        <mxCell id="1" parent="0" />
        <mxCell id="FY38sIzX25gFsvAzNdL_-1" value="&lt;font style=&quot;font-size: 24px;&quot;&gt;main.py&lt;/font&gt;" style="shape=document;whiteSpace=wrap;html=1;boundedLbl=1;fillColor=#fff2cc;strokeColor=#d6b656;" parent="1" vertex="1">
          <mxGeometry x="870" y="314" width="240" height="230" as="geometry" />
        </mxCell>
        <mxCell id="FY38sIzX25gFsvAzNdL_-9" style="edgeStyle=orthogonalEdgeStyle;rounded=0;orthogonalLoop=1;jettySize=auto;html=1;entryX=0;entryY=0.25;entryDx=0;entryDy=0;" parent="1" source="FY38sIzX25gFsvAzNdL_-2" target="FY38sIzX25gFsvAzNdL_-1" edge="1">
          <mxGeometry relative="1" as="geometry" />
        </mxCell>
        <mxCell id="FY38sIzX25gFsvAzNdL_-2" value="barcode.py" style="shape=document;whiteSpace=wrap;html=1;boundedLbl=1;fillColor=#dae8fc;strokeColor=#6c8ebf;fontSize=20;" parent="1" vertex="1">
          <mxGeometry x="570" y="318" width="170" height="110" as="geometry" />
        </mxCell>
        <mxCell id="FY38sIzX25gFsvAzNdL_-10" style="edgeStyle=orthogonalEdgeStyle;rounded=0;orthogonalLoop=1;jettySize=auto;html=1;entryX=0;entryY=0.5;entryDx=0;entryDy=0;" parent="1" source="FY38sIzX25gFsvAzNdL_-3" target="FY38sIzX25gFsvAzNdL_-1" edge="1">
          <mxGeometry relative="1" as="geometry" />
        </mxCell>
        <mxCell id="FY38sIzX25gFsvAzNdL_-3" value="&lt;font style=&quot;font-size: 19px;&quot;&gt;identityCheck2.py&lt;/font&gt;&lt;div style=&quot;font-size: 19px;&quot;&gt;&lt;br&gt;&lt;/div&gt;" style="shape=document;whiteSpace=wrap;html=1;boundedLbl=1;fillColor=#dae8fc;strokeColor=#6c8ebf;fontSize=20;" parent="1" vertex="1">
          <mxGeometry x="570" y="450" width="170" height="110" as="geometry" />
        </mxCell>
        <mxCell id="FY38sIzX25gFsvAzNdL_-8" style="edgeStyle=orthogonalEdgeStyle;rounded=0;orthogonalLoop=1;jettySize=auto;html=1;entryX=0.25;entryY=0;entryDx=0;entryDy=0;" parent="1" source="FY38sIzX25gFsvAzNdL_-4" target="FY38sIzX25gFsvAzNdL_-1" edge="1">
          <mxGeometry relative="1" as="geometry" />
        </mxCell>
        <mxCell id="FY38sIzX25gFsvAzNdL_-4" value="&lt;div style=&quot;font-size: 19px;&quot;&gt;labra.ui&lt;/div&gt;" style="shape=document;whiteSpace=wrap;html=1;boundedLbl=1;fillColor=#e1d5e7;strokeColor=#9673a6;fontSize=20;" parent="1" vertex="1">
          <mxGeometry x="570" y="190" width="170" height="110" as="geometry" />
        </mxCell>
        <mxCell id="FY38sIzX25gFsvAzNdL_-11" style="edgeStyle=orthogonalEdgeStyle;rounded=0;orthogonalLoop=1;jettySize=auto;html=1;entryX=0;entryY=0.75;entryDx=0;entryDy=0;" parent="1" source="FY38sIzX25gFsvAzNdL_-5" target="FY38sIzX25gFsvAzNdL_-1" edge="1">
          <mxGeometry relative="1" as="geometry">
            <Array as="points">
              <mxPoint x="830" y="635" />
              <mxPoint x="830" y="487" />
            </Array>
          </mxGeometry>
        </mxCell>
        <mxCell id="FY38sIzX25gFsvAzNdL_-5" value="dataBase.py" style="shape=document;whiteSpace=wrap;html=1;boundedLbl=1;fillColor=#dae8fc;strokeColor=#6c8ebf;fontSize=20;" parent="1" vertex="1">
          <mxGeometry x="570" y="580" width="170" height="110" as="geometry" />
        </mxCell>
        <mxCell id="FY38sIzX25gFsvAzNdL_-6" value="sound.py" style="shape=document;whiteSpace=wrap;html=1;boundedLbl=1;fillColor=#dae8fc;strokeColor=#6c8ebf;fontSize=20;" parent="1" vertex="1">
          <mxGeometry x="570" y="710" width="170" height="110" as="geometry" />
        </mxCell>
        <mxCell id="FY38sIzX25gFsvAzNdL_-12" style="edgeStyle=orthogonalEdgeStyle;rounded=0;orthogonalLoop=1;jettySize=auto;html=1;entryX=0.25;entryY=0.983;entryDx=0;entryDy=0;entryPerimeter=0;" parent="1" source="FY38sIzX25gFsvAzNdL_-6" target="FY38sIzX25gFsvAzNdL_-1" edge="1">
          <mxGeometry relative="1" as="geometry" />
        </mxCell>
        <mxCell id="FY38sIzX25gFsvAzNdL_-15" style="edgeStyle=orthogonalEdgeStyle;rounded=0;orthogonalLoop=1;jettySize=auto;html=1;entryX=0;entryY=0.25;entryDx=0;entryDy=0;" parent="1" source="FY38sIzX25gFsvAzNdL_-13" target="FY38sIzX25gFsvAzNdL_-6" edge="1">
          <mxGeometry relative="1" as="geometry" />
        </mxCell>
        <mxCell id="FY38sIzX25gFsvAzNdL_-13" value="winsound" style="shape=process;whiteSpace=wrap;html=1;backgroundOutline=1;fontSize=16;fillColor=#d5e8d4;strokeColor=#82b366;" parent="1" vertex="1">
          <mxGeometry x="300" y="690" width="120" height="60" as="geometry" />
        </mxCell>
        <mxCell id="FY38sIzX25gFsvAzNdL_-14" value="time" style="shape=process;whiteSpace=wrap;html=1;backgroundOutline=1;fontSize=16;fillColor=#d5e8d4;strokeColor=#82b366;" parent="1" vertex="1">
          <mxGeometry x="300" y="767" width="120" height="60" as="geometry" />
        </mxCell>
        <mxCell id="FY38sIzX25gFsvAzNdL_-16" style="edgeStyle=orthogonalEdgeStyle;rounded=0;orthogonalLoop=1;jettySize=auto;html=1;entryX=0.002;entryY=0.664;entryDx=0;entryDy=0;entryPerimeter=0;" parent="1" source="FY38sIzX25gFsvAzNdL_-14" target="FY38sIzX25gFsvAzNdL_-6" edge="1">
          <mxGeometry relative="1" as="geometry" />
        </mxCell>
        <mxCell id="FY38sIzX25gFsvAzNdL_-18" style="edgeStyle=orthogonalEdgeStyle;rounded=0;orthogonalLoop=1;jettySize=auto;html=1;entryX=0;entryY=0.5;entryDx=0;entryDy=0;" parent="1" source="FY38sIzX25gFsvAzNdL_-17" target="FY38sIzX25gFsvAzNdL_-3" edge="1">
          <mxGeometry relative="1" as="geometry" />
        </mxCell>
        <mxCell id="FY38sIzX25gFsvAzNdL_-17" value="datetime" style="shape=process;whiteSpace=wrap;html=1;backgroundOutline=1;fontSize=16;fillColor=#d5e8d4;strokeColor=#82b366;" parent="1" vertex="1">
          <mxGeometry x="300" y="475" width="120" height="60" as="geometry" />
        </mxCell>
        <mxCell id="FY38sIzX25gFsvAzNdL_-20" style="edgeStyle=orthogonalEdgeStyle;rounded=0;orthogonalLoop=1;jettySize=auto;html=1;entryX=0.5;entryY=0;entryDx=0;entryDy=0;" parent="1" source="FY38sIzX25gFsvAzNdL_-19" target="FY38sIzX25gFsvAzNdL_-1" edge="1">
          <mxGeometry relative="1" as="geometry" />
        </mxCell>
        <mxCell id="FY38sIzX25gFsvAzNdL_-19" value="PyQt6" style="shape=process;whiteSpace=wrap;html=1;backgroundOutline=1;fontSize=16;fillColor=#d5e8d4;strokeColor=#82b366;" parent="1" vertex="1">
          <mxGeometry x="310" y="40" width="120" height="60" as="geometry" />
        </mxCell>
      </root>
    </mxGraphModel>
  </diagram>
</mxfile>
